<svg width="24" height="25" viewBox="0 0 24 25" fill="none" xmlns="http://www.w3.org/2000/svg">
<mask id="mask0_3017_80" style="mask-type:alpha" maskUnits="userSpaceOnUse" x="0" y="0" width="24" height="25">
<rect y="0.5" width="24" height="24" fill="#D9D9D9"/>
</mask>
<g mask="url(#mask0_3017_80)">
<path d="M12 15.45C11.8667 15.45 11.7417 15.4292 11.625 15.3875C11.5083 15.3459 11.4 15.275 11.3 15.175L6.7 10.575C6.51667 10.3917 6.425 10.1584 6.425 9.87502C6.425 9.59169 6.51667 9.35836 6.7 9.17502C6.88334 8.99169 7.11667 8.90002 7.4 8.90002C7.68334 8.90002 7.91667 8.99169 8.1 9.17502L12 13.075L15.9 9.17502C16.0833 8.99169 16.3167 8.90002 16.6 8.90002C16.8833 8.90002 17.1167 8.99169 17.3 9.17502C17.4833 9.35836 17.575 9.59169 17.575 9.87502C17.575 10.1584 17.4833 10.3917 17.3 10.575L12.7 15.175C12.6 15.275 12.4917 15.3459 12.375 15.3875C12.2583 15.4292 12.1333 15.45 12 15.45Z" fill="#5773FF"/>
</g>
</svg>
